# xmcd CD database file
#
# Track frame offsets:
#	150
#	15442
#	30109
#	46910
#	58700
#	72550
#	85252
#	99251
#	113501
#	125263
#	138220
#	149466
#	164577
#	181533
#	193989
#	209269
#	221229
#	237151
#	247426
#	260471
#
# Disc length: 3630 seconds
#
# Revision: 0
# Processed by: cddbd v1.5.2PL0 Copyright (c) Steve Scherf et al.
# Submitted via: CDex 1.70beta2
#
DISCID=1d0e2c14
DTITLE=Dave Brubeck - Lullaby In Rhythm CD1
DYEAR=2006
DGENRE=Jazz
TTITLE0=All The Things You Are
TTITLE1=Just One Of Those Things
TTITLE2=Look For The Silver Lining
TTITLE3=My Romance
TTITLE4=Stardust
TTITLE5=Always
TTITLE6=How High The Moon
TTITLE7=A Foggy Day
TTITLE8=Frenesi
TTITLE9=Mam'selle
TTITLE10=Me And My Shadow
TTITLE11=Somebody Loves Me
TTITLE12=Body And Soul
TTITLE13=Fugue On Bop Themes
TTITLE14=I'll Remember April
TTITLE15=Love Walked In
TTITLE16=Lullaby In Rhythm
TTITLE17=Prelude
TTITLE18=September In The Rain
TTITLE19=Singing In The Rain
EXTD=YEAR: 2006
EXTT0=
EXTT1=
EXTT2=
EXTT3=
EXTT4=
EXTT5=
EXTT6=
EXTT7=
EXTT8=
EXTT9=
EXTT10=
EXTT11=
EXTT12=
EXTT13=
EXTT14=
EXTT15=
EXTT16=
EXTT17=
EXTT18=
EXTT19=
PLAYORDER=
